<?xml version="1.0" encoding="utf-8"?>
<!-- Svg Vector Icons : http://www.onlinewebfonts.com/icon -->
<!DOCTYPE svg PUBLIC "-//W3C//DTD SVG 1.1//EN" "http://www.w3.org/Graphics/SVG/1.1/DTD/svg11.dtd">
<svg version="1.1" xmlns="http://www.w3.org/2000/svg" xmlns:xlink="http://www.w3.org/1999/xlink" x="0px" y="0px" viewBox="0 0 256 256" enable-background="new 0 0 256 256" xml:space="preserve">
<metadata> Svg Vector Icons : http://www.onlinewebfonts.com/icon </metadata>
<g> <path fill="#040000" d="M128,246c-65.1,0-118-52.9-118-118S62.9,10,128,10s118,52.9,118,118S193.1,246,128,246z M128,18.5 C67.6,18.5,18.5,67.6,18.5,128c0,60.4,49.1,109.5,109.5,109.5c60.4,0,109.5-49.1,109.5-109.5C237.5,67.6,188.4,18.5,128,18.5z"/> <path fill="#ed8072" d="M212.3,132.1c-9.4,0-18.7,0-28.1,0c-9.1,0-18.2-0.1-27.2,0c-2.6,0-5.5-0.3-8,0.8c-3.5,1.6-3.4,5.4-1.3,8.2 c1.8,2.4,4,4.4,6.1,6.5c12.4,12.4,24.8,24.9,37.3,37.3c5.4,5.3,11.5,5.9,16.5,2.2c1.6-1,2.9-2.3,4-3.9 c6.9-10.2,11.9-21.7,14.5-33.8C228.4,138.4,223.5,132.2,212.3,132.1L212.3,132.1z M143.2,149.2c-2.1-2-4.4-4.1-7.5-2.7 c-0.3,0.1-0.6,0.3-0.8,0.5c-1.1,0.6-1.9,1.8-2.3,3.7c-0.3,1.7-0.5,3.4-0.5,5.1c0,9.4,0,18.7,0,28.1c0,9.8-0.1,19.6,0,29.4 c0.1,9.8,6.5,14.9,15.8,13c11.7-2.4,22.8-6.9,32.9-13.3c0.8-0.5,1.5-1,2.3-1.6l0.2-0.1c7.3-4.9,8.3-13.3,2.1-19.6 C171.5,177.4,157.3,163.3,143.2,149.2L143.2,149.2z M43.7,123.9c9.4,0,18.7,0,28.1,0c9.1,0,18.2,0.1,27.2,0c3,0,6,0.3,8.7-1.4 c3.1-1.9,2.6-4.9,0.6-7.6c-1.8-2.4-4-4.4-6.1-6.5C89.8,95.9,77.4,83.4,64.9,71.1c-5.4-5.3-11.5-5.9-16.5-2.2c-1.6,1-2.9,2.3-4,3.9 C37.5,82.9,32.6,94.4,30,106.5C27.6,117.6,32.5,123.8,43.7,123.9z M112.8,106.8c1.6,1.6,3.4,3.3,5.7,3.1c2.6-0.1,4.3-2.2,4.8-4.6 c0.3-1.7,0.5-3.4,0.5-5.1c0-9.4,0-18.7,0-28.1c0-9.8,0.1-19.6,0-29.4c-0.1-9.8-6.5-14.9-15.8-13C96.3,32.1,85.1,36.6,75.1,43 c-0.8,0.5-1.6,1-2.3,1.6l-0.2,0.1c-7.3,4.9-8.3,13.3-2.1,19.6C84.5,78.6,98.7,92.7,112.8,106.8z M133.9,108.2c2,2.3,4.7,2,7.3,0.1 c2.4-1.8,4.4-4,6.5-6.1c12.4-12.4,24.9-24.8,37.3-37.3c5.3-5.4,5.9-11.5,2.2-16.5c-1-1.6-2.3-2.9-3.9-4 C173,37.5,161.6,32.6,149.5,30c-11.1-2.4-17.3,2.5-17.4,13.8c0,9.4,0,18.7,0,28.1c0,9.1-0.1,18.2,0,27.2c0,2.9-0.6,5.9,1.2,8.5 C133.5,107.8,133.7,108,133.9,108.2z M149.2,112.8c-2,2.1-4.1,4.4-2.7,7.5c0.1,0.3,0.3,0.6,0.5,0.8c0.6,1.1,1.8,1.9,3.7,2.3 c1.7,0.3,3.4,0.5,5.1,0.5c9.4,0,18.7,0,28.1,0c9.8,0,19.6,0.1,29.4,0c9.8-0.1,14.9-6.5,13-15.8c-2.4-11.7-6.9-22.9-13.3-32.9 c-0.5-0.8-1-1.6-1.6-2.3c0-0.1-0.1-0.1-0.1-0.2c-4.9-7.3-13.3-8.3-19.6-2.1C177.4,84.5,163.3,98.7,149.2,112.8L149.2,112.8z  M122.3,147.6c-1.9-2.1-5.1-1.7-7.4,0.1c-2.4,1.8-4.4,4-6.5,6.1c-12.4,12.4-24.9,24.8-37.3,37.3c-5.3,5.4-5.9,11.5-2.2,16.5 c1,1.6,2.3,2.9,3.9,4c10.2,6.9,21.7,11.9,33.8,14.5c11.1,2.4,17.3-2.5,17.4-13.8c0-9.4,0-18.7,0-28.1c0-9.1,0.1-18.2,0-27.2 c0-2.7,0.5-5.7-0.8-8.2C122.8,148.3,122.6,148,122.3,147.6z M106.8,143.2c2-2.1,4.1-4.4,2.7-7.5c-0.1-0.3-0.3-0.6-0.5-0.8 c-0.6-1.1-1.8-1.9-3.7-2.3c-1.7-0.3-3.4-0.5-5.1-0.5c-9.4,0-18.7,0-28.1,0c-9.8,0-19.6-0.1-29.4,0c-9.8,0.1-14.9,6.5-13,15.8 c2.4,11.7,6.9,22.9,13.3,32.9c0.5,0.8,1,1.5,1.6,2.3l0.1,0.2c4.9,7.3,13.3,8.3,19.6,2.1C78.6,171.5,92.7,157.3,106.8,143.2z"/></g>
</svg>