<?xml version="1.0" encoding="utf-8"?>
<!-- Svg Vector Icons : http://www.onlinewebfonts.com/icon -->
<!DOCTYPE svg PUBLIC "-//W3C//DTD SVG 1.1//EN" "http://www.w3.org/Graphics/SVG/1.1/DTD/svg11.dtd">
<svg version="1.1" xmlns="http://www.w3.org/2000/svg" xmlns:xlink="http://www.w3.org/1999/xlink" x="0px" y="0px" viewBox="0 0 256 256" enable-background="new 0 0 256 256" xml:space="preserve">
<metadata> Svg Vector Icons : http://www.onlinewebfonts.com/icon </metadata>
<g> <path fill="#f39b2b" d="M41.3,157.6c0,48.2,39.1,87,87,87c48,0,87-39.1,87-87s-39.1-87-87-87C80.3,70.5,41.3,109.4,41.3,157.6"/> <path fill="#e88513" d="M58.1,159c0-45.1,34.2-82.2,78.3-86.6c-2.8-0.2-5.9-0.4-8.7-0.4c-48.2,0-87,39.1-87,87c0,48,39.1,87,87,87 c3,0,5.9-0.2,8.9-0.4C92.5,241.1,58.1,203.9,58.1,159"/> <path fill="#64ba79" d="M108.5,28.2c12.3,12.3,10.9,33.6,10.9,33.6s-21.2,1.4-33.6-10.9C73.5,38.6,74.9,17.3,74.9,17.3 S96.1,15.9,108.5,28.2"/> <path fill="#040000" d="M121.4,70.5c-7.1,0-27.1-1.2-39.9-14.2C66,40.8,67.4,14.9,67.6,13.9l0.2-3.6l3.6-0.2c1,0,26.9-1.4,42.5,14 c15.6,15.6,14.2,41.5,14,42.5l-0.2,3.6l-3.6,0.2C123.9,70.5,122.8,70.5,121.4,70.5 M75.7,18.1c0.2,7.1,2,22.7,11.7,32.4 c9.7,9.7,25.3,11.5,32.4,11.7c-0.2-7.1-2-22.7-11.7-32.4C98.4,20.2,82.8,18.3,75.7,18.1"/> <path fill="#ffffff" d="M80.7,98.7c0,2.2,1.2,4.5,3.2,5.5c2,1.2,4.5,1.2,6.5,0c2-1.2,3.2-3.2,3.2-5.5c0-2.2-1.2-4.5-3.2-5.5 c-2-1.2-4.5-1.2-6.5,0C82,94.2,80.7,96.4,80.7,98.7 M61.5,159.8c-1.4,0-2.6-0.8-3-2.2c-2-5.5-2-13.2-0.2-23.5 c1.8-10.3,6.9-19,14.6-25.9c1.4-1.2,3.4-1,4.5,0.2c1.2,1.4,1,3.4-0.2,4.5c-6.7,5.9-10.9,13.4-12.5,22.3c-1.6,9.1-1.6,15.8-0.2,20.2 c0.4,1,0.2,2-0.4,2.8C63.5,159.2,62.5,159.8,61.5,159.8z"/> <path fill="#040000" d="M135,72.8c-1.4,0-2.6-0.6-3.4-1.6c-0.8-1-1-2.4-0.8-3.6c4-14.8,12.8-27.3,24.5-35.4 c11.9-8.3,25.9-10.9,38.9-7.3c2.2,0.6,3.4,3,2.8,5.3c-0.6,2.2-2.8,3.6-5.1,3c-10.5-2.8-21.9-0.6-31.8,6.1 C150,46.1,142.5,57,139,69.7C138.6,71.6,136.8,72.8,135,72.8"/> <path fill="#287639" d="M74.9,17.9c0,0-1.4,21.2,10.9,33.6s33.6,10.9,33.6,10.9L74.9,17.9z"/></g>
</svg>